# AST/ASF file generated using VICON BodyLanguage
# -----------------------------------------------
:version 1.10
:name VICON
:units
  mass 1.0
  length 0.45
  angle deg
:documentation
   .ast/.asf automatically generated from VICON data using
   VICON BodyBuilder and BodyLanguage model FoxedUp or BRILLIANT.MOD
:root
   order TX TY TZ RX RY RZ
   axis XYZ
   position 0 0 0  
   orientation 0 0 0 
:bonedata
  begin
     id 1 
     name lhipjoint
     direction 0.645893 -0.654526 0.392961 
     length 2.38111 
     axis 0 0 0  XYZ
  end
  begin
     id 2 
     name lfemur
     direction 0.34202 -0.939693 0  
     length 6.6822  
     axis 0 0 20  XYZ
    dof rx ry rz
    limits (-160.0 20.0)
           (-70.0 70.0)
           (-60.0 70.0)
  end
  begin
     id 3 
     name ltibia
     direction 0.34202 -0.939693 0   
     length 6.93904   
     axis 0 0 20   XYZ
    dof rx
    limits (-10.0 170.0)
  end
  begin
     id 4 
     name lfoot
     direction 0.0694967 -0.190941 0.979138   
     length 2.13616   
     axis -90 7.62852e-016 20   XYZ
    dof rx rz
    limits (-45.0 90.0)
           (-70.0 20.0)
  end
  begin
     id 5 
     name ltoes
     direction 1.535e-011 -4.2202e-011 1   
     length 1.07536   
     axis -90 7.62852e-016 20   XYZ
    dof rx
    limits (-90.0 20.0)
  end
  begin
     id 6 
     name rhipjoint
     direction -0.700219 -0.612087 0.367481   
     length 2.54621  
     axis 0 0 0  XYZ 
  end
  begin
     id 7 
     name rfemur
     direction -0.34202 -0.939693 0   
     length 6.55353   
     axis 0 0 -20   XYZ
    dof rx ry rz
    limits (-160.0 20.0)
           (-70.0 70.0)
           (-70.0 60.0)
  end
  begin
     id 8 
     name rtibia
     direction -0.34202 -0.939693 0   
     length 6.8736   
     axis 0 0 -20   XYZ
    dof rx
    limits (-10.0 170.0)
 end
 begin
     id 9 
     name rfoot
     direction -0.0679995 -0.186827 0.980037   
     length 2.1218  
     axis -90 -7.62852e-016 -20   XYZ
    dof rx rz
    limits (-45.0 90.0)
           (-20.0 70.0)
  end
  begin
     id 10 
     name rtoes
     direction -1.53589e-011 -4.21772e-011 1   
     length 1.06864   
     axis -90 -7.62852e-016 -20   XYZ
    dof rx
    limits (-90.0 20.0)
  end
  begin
     id 11 
     name lowerback
     direction -0.0416607 0.996347 -0.0745409   
     length 2.12205   
     axis 0 0 0   XYZ
    dof rx ry rz
    limits (-20.0 45.0)
           (-30.0 30.0)
           (-30.0 30.0)
  end
  begin
     id 12 
     name upperback
     direction -0.000153993 0.999276 -0.0380568   
     length 2.12759   
     axis 0 0 0   XYZ
    dof rx ry rz
    limits (-20.0 45.0)
           (-30.0 30.0)
           (-30.0 30.0)
  end
  begin
     id 13 
     name thorax
     direction 0.0187671 0.999821 -0.00241421   
     length 2.13704   
     axis 0 0 0   XYZ
    dof rx ry rz
    limits (-20.0 45.0)
           (-30.0 30.0)
           (-30.0 30.0)
  end
  begin
     id 14 
     name lowerneck
     direction 0.0268157 0.964865 0.261374   
     length 1.65253   
     axis 0 0 0   XYZ
    dof rx ry rz
    limits (-20.0 45.0)
           (-30.0 30.0)
           (-30.0 30.0)
  end
  begin
     id 15 
     name upperneck
     direction 0.00263774 0.939908 -0.341418   
     length 1.72375   
     axis 0 0 0   XYZ
    dof rx ry rz
    limits (-20.0 45.0)
           (-30.0 30.0)
           (-30.0 30.0)
  end
  begin
     id 16
     name head
     direction -0.00526001 0.989001 -0.147818  
     length 1.74878  
     axis 0 0 0   XYZ
    dof rx ry rz
    limits (-20.0 45.0)
           (-30.0 30.0)
           (-30.0 30.0)
  end
  begin
     id 17 
     name lclavicle
     direction 0.881214 0.461162 -0.103884  
     length 3.25108  
     axis 0 0 0   XYZ
    dof ry rz
    limits (-20.0 10.0)
           (0.0 20.0)
  end
  begin
     id 18 
     name lhumerus
     direction 1 -4.4899e-011 3.38092e-027   
     length 4.87408   
     axis 180 -30 -90   XYZ
    dof rx ry rz
    limits (-60.0 90.0)
           (-90.0 90.0)
           (-90.0 90.0)
  end
  begin
     id 19
     name lradius
     direction 1 -4.48931e-011 9.96288e-027   
     length 2.76729   
     axis 180 -30 -90   XYZ
    dof rx
    limits (-10.0 170.0)
  end
  begin
     id 20
     name lwrist
     direction 1 -4.4896e-011 1.50617e-026   
     length 1.38364   
     axis -9.31234e-015 90 90   XYZ
    dof ry
    limits (-180.0 0.0)
 end
  begin
     id 21 
     name lhand
     direction 1 -4.49038e-011 3.01286e-026   
     length 0.98922   
     axis -1.92217e-014 90 90   XYZ
    dof rx rz
    limits (-90.0 90.0)
           (-45.0 45.0)
  end
  begin
     id 22 
     name lfingers
     direction 1 -4.49051e-011 6.02588e-026   
     length 0.797535   
     axis -3.84436e-014 90 90   XYZ
    dof rx
    limits (0.0 90.0)
  end
  begin
     id 23
     name lthumb
     direction 0.707107 -6.34901e-011 0.707107   
     length 1.14511   
     axis -90 45 2.19363e-014   XYZ
    dof rx rz
    limits (-45.0 45.0)
           (-45.0 45.0)
  end
  begin
     id 24 
     name rclavicle
     direction -0.893894 0.441652 -0.0767889   
     length 3.29361  
     axis 0 0 0   XYZ 
    dof ry rz
    limits (-10.0 20.0)
           (-20.0 0.0)
  end
  begin
     id 25 
     name rhumerus
     direction -1 -4.48945e-011 8.0491e-028  
     length 4.71404   
     axis 180 30 90   XYZ
    dof rx ry rz
    limits (-90.0 60.0)
           (-90.0 90.0)
           (-90.0 90.0)
  end
  begin
     id 26 
     name rradius
     direction -1 -4.48986e-011 9.27795e-027   
     length 2.83468   
     axis 180 30 90   XYZ
    dof rx
    limits (-10.0 170.0)
  end
  begin
     id 27 
     name rwrist
     direction -1 -4.49029e-011 1.5064e-026   
     length 1.41734   
     axis -9.31234e-015 -90 -90   XYZ
    dof ry
    limits (-180.0 0.0)
  end
  begin
     id 28
     name rhand
     direction -1 -4.48857e-011 3.01165e-026   
     length 0.868195   
     axis -1.92217e-014 -90 -90   XYZ
    dof rx rz
    limits (-90.0 90.0)
           (-45.0 45.0)
  end
  begin
     id 29
     name rfingers
     direction -1 -4.49048e-011 6.02585e-026   
     length 0.699961   
     axis -3.84436e-014 -90 -90   XYZ
    dof rx
    limits (0.0 90.0)
  end
  begin
     id 30
     name rthumb
     direction -0.707107 -6.34854e-011 0.707107   
     length 1.00501   
     axis -90 -45 -2.19363e-014   XYZ
    dof rx rz
    limits (-45.0 45.0)
           (-45.0 45.0)
  end
:hierarchy
  begin
    root lhipjoint rhipjoint lowerback
    lhipjoint lfemur
    lfemur ltibia
    ltibia lfoot
    lfoot ltoes
    rhipjoint rfemur
    rfemur rtibia
    rtibia rfoot
    rfoot rtoes
    lowerback upperback
    upperback thorax
    thorax lowerneck lclavicle rclavicle
    lowerneck upperneck
    upperneck head
    lclavicle lhumerus
    lhumerus lradius
    lradius lwrist
    lwrist lhand lthumb
    lhand lfingers
    rclavicle rhumerus
    rhumerus rradius
    rradius rwrist
    rwrist rhand rthumb
    rhand rfingers
  end

#!OML:ASF H:\ManfredObstacles\Project 1\Capture day 2\Session 1\male.ASF
:FULLY-SPECIFIED
:DEGREES
113
root -5.49151 16.4699 -0.843235 -173.086 36.815 172.185
lowerback -5.4107 4.05813 -3.98122
upperback -1.12535 5.82638 -3.19883
thorax 1.80521 2.94693 -0.674013
lowerneck -31.6481 -5.87771 -2.29296
upperneck 42.9836 -7.16515 3.50816
head 25.5349 -1.4221 0.763739
rclavicle -9.5603e-015 2.06239e-015
rhumerus -48.2064 18.6321 -89.7596
rradius 83.7779
rwrist 10.0972
rhand -8.64351 -2.12615
rfingers 7.12502
rthumb 17.2896 -31.3771
lclavicle -9.5603e-015 2.06239e-015
lhumerus -64.1085 -22.9657 86.6355
lradius 100.883
lwrist -18.7331
lhand -14.0814 7.02478
lfingers 7.12502
lthumb 12.0507 36.6578
rfemur 3.74932 0.644154 25.9016
rtibia 43.3056
rfoot 21.7069 -15.3006
rtoes -5.17673
lfemur -33.0152 -8.097 -17.7347
ltibia 28.9564
lfoot 13.4297 8.8882
ltoes -11.9375
114
root -5.35645 16.3506 -1.10222 -173.652 37.0781 172.008
lowerback -5.16645 3.80981 -4.15214
upperback -0.973139 5.48848 -3.11977
thorax 1.80705 2.77308 -0.53263
lowerneck -31.5778 -5.75497 -2.16012
upperneck 42.9932 -7.08715 3.56083
head 25.5039 -1.36995 0.793662
rclavicle -1.52412e-014 1.59773e-014
rhumerus -48.2403 17.7455 -89.5483
rradius 82.7265
rwrist 10.4693
rhand -8.80694 -2.5855
rfingers 7.12502
rthumb 17.1323 -31.8502
lclavicle -1.52412e-014 1.59773e-014
lhumerus -63.5569 -23.101 86.4836
lradius 100.792
lwrist -18.5882
lhand -14.1931 7.21468
lfingers 7.12502
lthumb 11.9429 36.854
rfemur 2.69945 0.0236908 25.4163
rtibia 46.8498
rfoot 20.4813 -15.7057
rtoes -5.77947
lfemur -32.0293 -7.61914 -18.4748
ltibia 30.3712
lfoot 11.9229 9.47551
ltoes -12.433
115
root -5.22215 16.2265 -1.35829 -174.281 37.335 171.732
lowerback -4.88981 3.55341 -4.40113
upperback -0.808603 5.14409 -3.06292
thorax 1.80165 2.5962 -0.371476
lowerneck -31.5052 -5.64136 -2.02021
upperneck 42.9939 -7.03243 3.61653
head 25.4637 -1.32482 0.815961
rclavicle -1.89156e-015 1.15792e-014
rhumerus -48.2554 16.8239 -89.3347
rradius 81.5826
rwrist 10.8369
rhand -9.03218 -2.89111
rfingers 7.12502
rthumb 16.9155 -32.1745
lclavicle -1.89156e-015 1.15792e-014
lhumerus -62.9033 -23.2795 86.3431
lradius 100.621
lwrist -18.4294
lhand -14.3061 7.44043
lfingers 7.12502
lthumb 11.834 37.0861
rfemur 1.5706 -0.581995 24.8438
rtibia 50.41
rfoot 19.3059 -16.1345
rtoes -6.34505
lfemur -31.0355 -7.26408 -19.2131
ltibia 31.9591
lfoot 10.4923 10.1184
ltoes -13.3173
116
root -5.08825 16.1008 -1.61135 -174.982 37.6042 171.342
lowerback -4.57702 3.29304 -4.73842
upperback -0.635268 4.79844 -3.03019
thorax 1.78354 2.41902 -0.18646
lowerneck -31.4476 -5.53948 -1.90197
upperneck 42.9764 -6.99218 3.67777
head 25.4146 -1.29013 0.839098
rclavicle -4.98142e-014 -7.65321e-015
rhumerus -48.2544 15.8788 -89.1298
rradius 80.358
rwrist 11.1757
rhand -9.32221 -3.09524
rfingers 7.12502
rthumb 16.6363 -32.4023
lclavicle -4.98142e-014 -7.65321e-015
lhumerus -62.148 -23.4762 86.2339
lradius 100.35
lwrist -18.2442
lhand -14.4172 7.71125
lfingers 7.12502
lthumb 11.7268 37.363
rfemur 0.358077 -1.15105 24.1684
rtibia 53.967
rfoot 18.147 -16.4958
rtoes -6.80653
lfemur -30.0228 -7.05352 -19.9606
ltibia 33.6163
lfoot 8.95896 11.0793
ltoes -14.3458
117
root -4.95477 15.9757 -1.86081 -175.752 37.9001 170.842
lowerback -4.22007 3.0358 -5.15755
upperback -0.454498 4.45918 -3.02389
thorax 1.74841 2.24554 0.0168349
lowerneck -31.4008 -5.43482 -1.80404
upperneck 42.9126 -6.94811 3.74402
head 25.3232 -1.26267 0.865887
rclavicle -9.42985e-015 -1.89839e-014
rhumerus -48.2481 14.9088 -88.932
rradius 79.0717
rwrist 11.5465
rhand -9.56008 -3.30813
rfingers 7.12502
rthumb 16.4072 -32.6342
lclavicle -9.42985e-015 -1.89839e-014
lhumerus -61.2589 -23.6766 86.1504
lradius 99.9391
lwrist -18.0437
lhand -14.522 8.00241
lfingers 7.12502
lthumb 11.6258 37.6599
rfemur -0.961539 -1.65021 23.4069
rtibia 57.5182
rfoot 17.0067 -16.7256
rtoes -7.19456
lfemur -28.9828 -6.99105 -20.7213
ltibia 35.2285
lfoot 7.77941 11.9136
ltoes -15.4457
118
root -4.82074 15.8535 -2.10685 -176.616 38.2636 170.236
lowerback -3.80889 2.79277 -5.65679
upperback -0.250173 4.13964 -3.04295
thorax 1.70763 2.08188 0.23955
lowerneck -31.3564 -5.322 -1.73482
upperneck 42.7868 -6.89098 3.82162
head 25.1717 -1.24158 0.903294
rclavicle -2.10091e-014 -1.59028e-015
rhumerus -48.2446 13.9468 -88.7567
rradius 77.7482
rwrist 11.9231
rhand -9.77371 -3.61697
rfingers 7.12502
rthumb 16.2015 -32.9599
lclavicle -2.10091e-014 -1.59028e-015
lhumerus -60.2046 -23.8394 86.0747
lradius 99.3521
lwrist -17.885
lhand -14.6317 8.3036
lfingers 7.12502
lthumb 11.5199 37.967
rfemur -2.36055 -2.05325 22.5581
rtibia 61.0489
rfoot 15.8078 -16.8416
rtoes -7.43618
lfemur -27.8597 -6.96198 -21.5365
ltibia 36.708
lfoot 5.73862 13.8165
ltoes -16.1174
119
root -4.68647 15.7349 -2.34629 -177.574 38.6692 169.5
lowerback -3.31353 2.56349 -6.26654
upperback -0.0504442 3.83554 -3.08988
thorax 1.61438 1.92766 0.493293
lowerneck -31.3269 -5.20925 -1.70986
upperneck 42.614 -6.82283 3.91312
head 24.985 -1.22779 0.956226
rclavicle -4.9839e-014 -4.4329e-014
rhumerus -48.299 13.0054 -88.605
rradius 76.4135
rwrist 12.2189
rhand -9.96041 -4.08724
rfingers 7.12502
rthumb 16.0218 -33.4448
lclavicle -4.9839e-014 -4.4329e-014
lhumerus -59.0106 -23.99 86.0305
lradius 98.5952
lwrist -17.708
lhand -14.7197 8.61833
lfingers 7.12502
lthumb 11.4351 38.2865
rfemur -3.88422 -2.39487 21.6188
rtibia 64.5587
rfoot 14.5807 -16.817
rtoes -7.69324
lfemur -26.666 -6.93387 -22.4454
ltibia 38.0008
lfoot 3.98732 15.6622
ltoes -16.6121
120
root -4.55155 15.6212 -2.57853 -178.622 39.1381 168.668
lowerback -2.73481 2.35906 -6.96602
upperback 0.161503 3.55813 -3.15582
thorax 1.48743 1.78797 0.777156
lowerneck -31.3479 -5.09683 -1.71963
upperneck 42.4041 -6.74947 4.01632
head 24.7888 -1.22045 1.01994
rclavicle 5.86228e-014 -5.01931e-015
rhumerus -48.4314 12.1249 -88.4801
rradius 75.1086
rwrist 12.3195
rhand -10.1707 -4.71954
rfingers 7.12502
rthumb 15.8193 -34.0932
lclavicle 5.86228e-014 -5.01931e-015
lhumerus -57.6571 -24.122 85.9991
lradius 97.6784
lwrist -17.5352
lhand -14.8231 8.95688
lfingers 7.12502
lthumb 11.3353 38.6305
rfemur -5.51815 -2.65537 20.6269
rtibia 68.0207
rfoot 13.2832 -16.7363
rtoes -8.05624
lfemur -25.3789 -6.81095 -23.4365
ltibia 39.0924
lfoot 2.54396 17.4093
ltoes -17.059
121
root -4.41686 15.512 -2.80176 -179.712 39.6392 167.789
lowerback -2.0761 2.17924 -7.70656
upperback 0.378641 3.30251 -3.24453
thorax 1.32501 1.6613 1.06041
lowerneck -31.4275 -4.98548 -1.72495
upperneck 42.179 -6.68995 4.12732
head 24.6062 -1.21639 1.08093
rclavicle 1.74558e-015 1.39149e-014
rhumerus -48.6526 11.2889 -88.3862
rradius 73.8377
rwrist 12.2361
rhand -10.4163 -5.39054
rfingers 7.12502
rthumb 15.5827 -34.7828
lclavicle 1.74558e-015 1.39149e-014
lhumerus -56.167 -24.277 85.9525
lradius 96.6556
lwrist -17.3788
lhand -14.9151 9.31548
lfingers 7.12502
lthumb 11.2467 38.994
rfemur -7.28504 -2.86167 19.6442
rtibia 71.4111
rfoot 11.9235 -16.6683
rtoes -8.53853
lfemur -24.0268 -6.5569 -24.4719
ltibia 39.9994
lfoot 1.47931 19.0368
ltoes -17.5478
122
root -4.2818 15.41 -3.01777 -180.808 40.1704 166.871
lowerback -1.39647 2.02657 -8.47515
upperback 0.592684 3.0751 -3.35321
thorax 1.15143 1.55063 1.34118
lowerneck -31.5879 -4.88485 -1.73189
upperneck 41.9616 -6.65366 4.24621
head 24.4692 -1.21764 1.13932
rclavicle 3.42655e-014 3.57315e-014
rhumerus -48.9887 10.501 -88.3084
rradius 72.6301
rwrist 11.9845
rhand -10.6516 -6.10122
rfingers 7.12502
rthumb 15.3561 -35.511
lclavicle 3.42655e-014 3.57315e-014
lhumerus -54.5787 -24.4479 85.8851
lradius 95.6109
lwrist -17.2842
lhand -14.9485 9.69128
lfingers 7.12502
lthumb 11.2145 39.3715
rfemur -9.20313 -3.01765 18.6753
rtibia 74.6801
rfoot 10.5186 -16.6409
rtoes -9.18573
lfemur -22.6622 -6.17533 -25.5345
ltibia 40.7609
lfoot 0.737942 20.5346
ltoes -18.0422
